<svg width="24" height="24" viewBox="0 0 24 24" fill="none" xmlns="http://www.w3.org/2000/svg">
<g clip-path="url(#clip0_581_378)">
<path fill-rule="evenodd" clip-rule="evenodd" d="M24 11.999C24 18.6264 18.6274 23.999 12 23.999C5.37258 23.999 0 18.6264 0 11.999C0 5.37161 5.37258 -0.000976562 12 -0.000976562C18.6274 -0.000976562 24 5.37161 24 11.999ZM19.1699 17.9124V12.9651C19.1699 10.3158 17.7551 9.08282 15.868 9.08282C14.3438 9.08282 13.664 9.92135 13.2828 10.5079V9.28539H10.4141C10.4526 10.0946 10.4141 17.9122 10.4141 17.9122H13.2826V13.0941C13.2826 12.8355 13.3021 12.5794 13.3776 12.395C13.5855 11.8791 14.0563 11.3462 14.8489 11.3462C15.8874 11.3462 16.3016 12.1377 16.3016 13.2967V17.9124H19.1699ZM13.2828 10.5079V10.5361H13.2638C13.2665 10.5312 13.2701 10.5263 13.2737 10.5213C13.2769 10.5169 13.2801 10.5124 13.2828 10.5079ZM5.79016 6.61727C5.79016 5.77104 6.43211 5.12695 7.41332 5.12695C8.39475 5.12695 8.99776 5.77104 9.0168 6.61727C9.0168 7.44554 8.39475 8.10824 7.39428 8.10824H7.37567C6.4135 8.10824 5.79016 7.44554 5.79016 6.61727ZM8.82813 17.9124H5.96065V9.28539H8.82813V17.9124Z" fill="white"/>
</g>
<defs>
<clipPath id="clip0_581_378">
<rect width="24" height="24" fill="white"/>
</clipPath>
</defs>
</svg>
